<?xml version="1.0" encoding="UTF-8"?>
<svg xmlns="http://www.w3.org/2000/svg" version="1.1" viewBox="0 0 1000 1000">
  <defs>
    <style>
      .cls-1 {
        fill: #fe0470;
      }
    </style>
  </defs>
  <!-- Generator: Adobe Illustrator 28.6.0, SVG Export Plug-In . SVG Version: 1.2.0 Build 709)  -->
  <g>
    <g id="Camada_1">
      <g>
        <g id="_x23_fe0470ff">
          <path class="cls-1" d="M808.97,405.28c13.19-.37,26.35-.11,39.53-.17-.03,7.62-.03,15.25-.09,22.87,15.14.31,30.27-.28,45.38.25,2.49,10.67.28,22.79.96,34.03-15.42.08-30.86,0-46.28.06.06,20.1-.03,40.24,0,60.37-.57,6.98,4.4,13.81,11.69,14.06,11.26.59,22.56,0,33.83.2-.06,12.36-.06,24.71,0,37.07-16.43-.48-32.98,1.13-49.33-.93-21.18-3.28-35.52-24.11-35.49-44.78-.34-41,.08-82.03-.2-123.03Z"/>
          <path class="cls-1" d="M569.12,411.83c12.76-8.1,28.49-6.75,42.95-6.69,12.28-.09,24.99,4.01,33.74,12.93,9.32,9.69,13.3,23.47,13.07,36.71-.17,39.73.23,79.49-.23,119.22-13.13-.17-26.26-.14-39.39-.03-.45-39.84.03-79.68-.2-119.5.31-17.03-31.91-16.72-31.23.4-.48,39.67-.2,79.35-.37,118.99-13.16.03-26.34.11-39.5-.06.03-39.76-.06-79.52.03-119.27-.31-16.43,6.41-34.11,21.12-42.69Z"/>
          <path class="cls-1" d="M702.32,411.86c11.74-7.57,26.28-7,39.7-6.69,11.44.2,23.3,3.9,31.43,12.25,10.81,10.25,14.63,25.75,14.34,40.24-.2,15.14.31,30.3-.23,45.43-.45,7.06-7.77,11.04-14.17,11.18-17.54.48-35.07.06-52.64.17-.2,7.99-.85,19.85,9.38,21.83,16.8,1.64,33.88.2,50.8.68-.03,12.36-.06,24.71.03,37.07-17.76.03-35.55,0-53.31.06-11.43.17-23.27-3.36-31.65-11.38-10.31-9.37-14.74-23.6-14.85-37.22-.06-23.72,0-47.44,0-71.16-.12-16.32,6.63-33.83,21.18-42.47M721.46,451.19c-1.19,8.3-.4,16.72-.57,25.08,8.84-.03,17.68-.14,26.51.08.31-9.97,2.66-21.04-2.51-30.16-6.78-6.41-20.95-5.03-23.44,5Z"/>
        </g>
        <path class="cls-1" d="M433.73,359h-249.48c-43.59,0-79.26,35.67-79.26,79.26v123.48c0,43.59,35.67,79.26,79.26,79.26h249.48c43.59,0,79.26-35.67,79.26-79.26v-123.48c0-43.59-35.67-79.26-79.26-79.26ZM291.79,483.24c0,5.4-2.59,8.1-7.78,8.1h-21.39c-5.4,0-8.1-2.7-8.1-8.1v-7.78c0-7.99-1.13-13.55-3.4-16.69-2.27-3.13-5.89-4.7-10.85-4.7-5.62,0-9.56,1.89-11.83,5.67-2.27,3.78-3.4,10.21-3.4,19.28v45.69c0,8.64,1.13,14.74,3.4,18.31s6.21,5.35,11.83,5.35c5.18,0,8.85-1.13,11.02-3.4,2.16-2.27,3.24-6.21,3.24-11.83v-3.56c0-5.18,2.7-7.78,8.1-7.78h21.39c5.18,0,7.78,2.7,7.78,8.1v6.8c0,16.2-4.37,28.41-13.12,36.62-8.75,8.21-21.44,12.31-38.07,12.31-17.5,0-30.84-5.13-40.02-15.39-9.18-10.26-13.77-24.68-13.77-43.26v-50.55c0-19.01,4.59-33.7,13.77-44.07,9.18-10.37,22.52-15.55,40.02-15.55,34.13.22,51.2,18.15,51.2,53.79v12.64ZM428.53,526.34c0,19.66-4.75,34.46-14.26,44.39-9.51,9.94-22.9,14.91-40.18,14.91s-31-4.97-40.5-14.91c-9.51-9.93-14.26-24.73-14.26-44.39v-99.15c0-5.4,2.7-8.1,8.1-8.1h22.03c5.18,0,7.78,2.7,7.78,8.1v93.32c0,10.37,1.18,17.66,3.56,21.87,2.37,4.21,6.8,6.32,13.29,6.32s10.58-2.11,12.96-6.32c2.37-4.21,3.56-11.5,3.56-21.87v-93.32c0-5.4,2.7-8.1,8.1-8.1h21.71c5.4,0,8.1,2.7,8.1,8.1v99.15Z"/>
      </g>
    </g>
  </g>
</svg>